<svg width="15" height="11" viewBox="0 0 15 11" fill="none" xmlns="http://www.w3.org/2000/svg">
<path fill-rule="evenodd" clip-rule="evenodd" d="M0 5.27776C0 4.81753 0.373096 4.44443 0.833333 4.44443L11.5996 4.44443L8.57744 1.42261C8.25199 1.09719 8.25196 0.569548 8.57738 0.244095C8.9028 -0.0813589 9.43044 -0.0813856 9.75589 0.244036L14.2008 4.68848C14.3571 4.84476 14.4449 5.05674 14.4449 5.27776C14.4449 5.49879 14.3571 5.71077 14.2008 5.86705L9.75589 10.3115C9.43044 10.6369 8.9028 10.6369 8.57738 10.3114C8.25196 9.98598 8.25199 9.45834 8.57744 9.13292L11.5996 6.1111L0.833333 6.1111C0.373096 6.1111 0 5.738 0 5.27776Z" fill="#4A4A4A"/>
</svg>
