<svg width="28" height="28" viewBox="0 0 28 28" fill="none" xmlns="http://www.w3.org/2000/svg">
<path d="M0 9.6C0 6.23969 0 4.55953 0.653961 3.27606C1.2292 2.14708 2.14708 1.2292 3.27606 0.653961C4.55953 0 6.23969 0 9.6 0H18.4C21.7603 0 23.4405 0 24.7239 0.653961C25.8529 1.2292 26.7708 2.14708 27.346 3.27606C28 4.55953 28 6.23969 28 9.6V18.4C28 21.7603 28 23.4405 27.346 24.7239C26.7708 25.8529 25.8529 26.7708 24.7239 27.346C23.4405 28 21.7603 28 18.4 28H9.6C6.23969 28 4.55953 28 3.27606 27.346C2.14708 26.7708 1.2292 25.8529 0.653961 24.7239C0 23.4405 0 21.7603 0 18.4V9.6Z" fill="#92EDDE"/>
<circle cx="14.0502" cy="8.85" r="3.85" stroke="#095346" stroke-width="1.5"/>
<path d="M7.29032 20.1774L6.679 21.2777C6.37437 21.8261 6.77087 22.5 7.39815 22.5H20.7018C21.3291 22.5 21.7256 21.8261 21.421 21.2777L20.8097 20.1774C19.4458 17.7225 16.8583 16.2 14.05 16.2C11.2417 16.2 8.65415 17.7225 7.29032 20.1774Z" stroke="#095346" stroke-width="1.5" stroke-linecap="round" stroke-linejoin="round"/>
</svg>
