<svg width="15" height="10" viewBox="0 0 15 10" fill="none" xmlns="http://www.w3.org/2000/svg">
<mask id="mask0_179_568" style="mask-type:luminance" maskUnits="userSpaceOnUse" x="0" y="0" width="15" height="10">
<path d="M0 0H14.0524V9.34659H0V0Z" fill="white"/>
</mask>
<g mask="url(#mask0_179_568)">
<path fill-rule="evenodd" clip-rule="evenodd" d="M-2.19629 0H16.2465V9.34659H-2.19629V0Z" fill="white"/>
<path fill-rule="evenodd" clip-rule="evenodd" d="M-2.19629 6.27591H16.2465V9.34641H-2.19629V6.27591Z" fill="#DA0000"/>
<path fill-rule="evenodd" clip-rule="evenodd" d="M-2.19629 0H16.2465V3.0705H-2.19629V0Z" fill="#239F40"/>
<path fill-rule="evenodd" clip-rule="evenodd" d="M2.05762 6.39969H2.93403V6.45871H2.05762V6.39969ZM2.18818 6.70017H2.249V6.7592H2.18818V6.70017ZM2.9376 6.70017V6.7592H2.76232V6.69838L2.9376 6.70017ZM3.03061 6.39969H3.09142V6.75741H3.03061V6.39969Z" fill="white"/>
<path fill-rule="evenodd" clip-rule="evenodd" d="M3.38138 6.69831V6.75912H3.04871V6.69831H3.38138ZM2.76253 6.55701H2.81977V6.75912H2.76074L2.76253 6.55701Z" fill="white"/>
<path fill-rule="evenodd" clip-rule="evenodd" d="M3.33109 6.39969H3.39191V6.75741H3.33109V6.39969ZM3.18085 6.39969H3.23988V6.75741H3.18085V6.39969ZM2.37956 6.54278V6.60359H2.05762V6.54278H2.37956ZM3.08248 6.54278V6.60359H2.76053V6.54278H3.08248Z" fill="white"/>
<path fill-rule="evenodd" clip-rule="evenodd" d="M2.76253 6.55899H2.81977V6.75752H2.76074L2.76253 6.55899Z" fill="white"/>
<path fill-rule="evenodd" clip-rule="evenodd" d="M2.76253 6.55899H2.81977V6.75752H2.76074L2.76253 6.55899Z" fill="white"/>
<path fill-rule="evenodd" clip-rule="evenodd" d="M2.762 6.55899H2.81923V6.75752H2.76021L2.762 6.55899ZM2.05908 6.55899H2.11811V6.75752H2.05908V6.55899ZM2.5742 6.55899H2.63501V6.75752H2.5742V6.55899ZM2.31843 6.55899H2.37924V6.75752H2.31843V6.55899Z" fill="white"/>
<path fill-rule="evenodd" clip-rule="evenodd" d="M2.61578 6.6983V6.75911H2.3457V6.6983H2.61578ZM2.63367 6.54269V6.60351H2.46196V6.54269H2.63367Z" fill="white"/>
<path fill-rule="evenodd" clip-rule="evenodd" d="M0.616211 6.39969H1.49262V6.45871H0.616211V6.39969ZM0.746778 6.70017H0.80759V6.7592H0.744989L0.746778 6.70017ZM1.4962 6.70017V6.7592H1.32092V6.69838L1.4962 6.70017ZM1.5892 6.39969H1.65002V6.75741H1.5892V6.39969Z" fill="white"/>
<path fill-rule="evenodd" clip-rule="evenodd" d="M1.93965 6.69831V6.75912H1.60698V6.69831H1.93965ZM1.3208 6.55701H1.37982V6.75912H1.3208V6.55701Z" fill="white"/>
<path fill-rule="evenodd" clip-rule="evenodd" d="M1.88969 6.39969H1.9505V6.75741H1.88969V6.39969ZM1.73945 6.39969H1.79847V6.75741H1.73945V6.39969ZM0.938157 6.54278V6.60359H0.616211V6.54278H0.938157ZM1.64107 6.54278V6.60359H1.31913V6.54278H1.64107Z" fill="white"/>
<path fill-rule="evenodd" clip-rule="evenodd" d="M1.3208 6.55899H1.37982V6.75752H1.3208V6.55899Z" fill="white"/>
<path fill-rule="evenodd" clip-rule="evenodd" d="M1.3208 6.55899H1.37982V6.75752H1.3208V6.55899Z" fill="white"/>
<path fill-rule="evenodd" clip-rule="evenodd" d="M1.32059 6.55899H1.37962V6.75752H1.32059V6.55899ZM0.617676 6.55899H0.676699V6.75752H0.617676V6.55899ZM1.13279 6.55899H1.19181V6.75752H1.13279V6.55899ZM0.877021 6.55899H0.937834V6.75752H0.877021V6.55899Z" fill="white"/>
<path fill-rule="evenodd" clip-rule="evenodd" d="M1.17405 6.6983V6.75911H0.905762V6.6983H1.17405ZM1.19194 6.54269V6.60351H1.02023V6.54269H1.19194Z" fill="white"/>
<path fill-rule="evenodd" clip-rule="evenodd" d="M3.48682 6.39969H4.36323V6.45871H3.48682V6.39969ZM3.61738 6.70017H3.6782V6.7592H3.61738V6.70017ZM4.3668 6.70017V6.7592H4.19152V6.69838L4.3668 6.70017ZM4.4616 6.39969H4.52241V6.75741H4.4616V6.39969Z" fill="white"/>
<path fill-rule="evenodd" clip-rule="evenodd" d="M4.81026 6.69831V6.75912H4.47758V6.69831H4.81026ZM4.19141 6.55701H4.25222V6.75912H4.19141V6.55701Z" fill="white"/>
<path fill-rule="evenodd" clip-rule="evenodd" d="M4.76029 6.39969H4.82111V6.75741H4.76029V6.39969ZM4.61005 6.39969H4.67086V6.75741H4.60826L4.61005 6.39969ZM3.80876 6.54278V6.60359H3.48682V6.54278H3.80876ZM4.51168 6.54278V6.60359H4.18973V6.54278H4.51168Z" fill="white"/>
<path fill-rule="evenodd" clip-rule="evenodd" d="M4.19141 6.55899H4.25222V6.75752H4.19141V6.55899Z" fill="white"/>
<path fill-rule="evenodd" clip-rule="evenodd" d="M4.19141 6.55899H4.25222V6.75752H4.19141V6.55899Z" fill="white"/>
<path fill-rule="evenodd" clip-rule="evenodd" d="M4.1912 6.55899H4.25201V6.75752H4.1912V6.55899ZM3.48828 6.55899H3.54909V6.75752H3.48828V6.55899ZM4.0034 6.55899H4.06421V6.75752H4.0034V6.55899ZM3.74763 6.55899H3.80844V6.75752H3.74763V6.55899Z" fill="white"/>
<path fill-rule="evenodd" clip-rule="evenodd" d="M4.04677 6.6983V6.75911H3.7749V6.6983H4.04677ZM4.06465 6.54269V6.60351H3.89295V6.54269H4.06465Z" fill="white"/>
<path fill-rule="evenodd" clip-rule="evenodd" d="M13.5815 6.39969H14.458V6.45871H13.5815V6.39969ZM13.7121 6.70017H13.7729V6.7592H13.7121V6.70017ZM14.4615 6.70017V6.7592H14.2845V6.69838L14.4615 6.70017ZM14.5563 6.39969H14.6153V6.75741H14.5545L14.5563 6.39969Z" fill="white"/>
<path fill-rule="evenodd" clip-rule="evenodd" d="M14.8568 6.39969H14.9158V6.75741H14.855L14.8568 6.39969ZM14.7048 6.39969H14.7656V6.75741H14.7048V6.39969ZM13.9035 6.54278V6.60359H13.5815V6.54278H13.9035ZM14.6064 6.54278V6.60359H14.2845V6.54278H14.6064Z" fill="white"/>
<path fill-rule="evenodd" clip-rule="evenodd" d="M14.2841 6.55899H14.3467V6.75752H14.2841V6.55899ZM13.583 6.55899H13.6438V6.75752H13.583V6.55899ZM14.0981 6.55899H14.1589V6.75752H14.0981V6.55899ZM13.8424 6.55899H13.9032V6.75752H13.8424V6.55899Z" fill="white"/>
<path fill-rule="evenodd" clip-rule="evenodd" d="M14.1415 6.6983V6.75911H13.8696V6.6983H14.1415ZM14.1594 6.54269V6.60351H13.9877V6.54269H14.1594Z" fill="white"/>
<path fill-rule="evenodd" clip-rule="evenodd" d="M4.9248 6.39969H5.803V6.45871H4.92659L4.9248 6.39969ZM5.05716 6.70017H5.11618V6.7592H5.05716V6.70017ZM5.80479 6.70017V6.7592H5.62951V6.69838L5.80479 6.70017ZM5.89959 6.39969H5.9604V6.75741H5.89959V6.39969Z" fill="white"/>
<path fill-rule="evenodd" clip-rule="evenodd" d="M6.25004 6.69831V6.75912H5.91736V6.69831H6.25004ZM5.62939 6.55701H5.69021V6.75912H5.62939V6.55701Z" fill="white"/>
<path fill-rule="evenodd" clip-rule="evenodd" d="M6.19975 6.39969H6.26056V6.75741H6.19975V6.39969ZM6.04772 6.39969H6.10853V6.75741H6.04772V6.39969ZM5.24643 6.54278V6.60359H4.92627V6.54278H5.24643ZM5.94934 6.54278V6.60359H5.62919V6.54278H5.94934Z" fill="white"/>
<path fill-rule="evenodd" clip-rule="evenodd" d="M5.62939 6.55899H5.69021V6.75752H5.62939V6.55899Z" fill="white"/>
<path fill-rule="evenodd" clip-rule="evenodd" d="M5.62939 6.55899H5.69021V6.75752H5.62939V6.55899Z" fill="white"/>
<path fill-rule="evenodd" clip-rule="evenodd" d="M5.62919 6.55899H5.69V6.75752H5.62919V6.55899ZM4.92627 6.55899H4.98708V6.75752H4.92627V6.55899ZM5.44138 6.55899H5.5022V6.75752H5.44138V6.55899ZM5.1874 6.55899H5.24643V6.75752H5.1874V6.55899Z" fill="white"/>
<path fill-rule="evenodd" clip-rule="evenodd" d="M5.48443 6.6983V6.75911H5.21436V6.6983H5.48443ZM5.50232 6.54269V6.60351H5.33061V6.54269H5.50232Z" fill="white"/>
<path fill-rule="evenodd" clip-rule="evenodd" d="M6.37012 6.39969H7.24653V6.45871H6.37012V6.39969ZM6.50068 6.70017H6.5615V6.7592H6.50068V6.70017ZM7.2501 6.70017V6.7592H7.07482V6.69838L7.2501 6.70017ZM7.3449 6.39969H7.40392V6.75741H7.3449V6.39969Z" fill="white"/>
<path fill-rule="evenodd" clip-rule="evenodd" d="M7.69356 6.69831V6.75912H7.36088V6.69831H7.69356ZM7.07471 6.55701H7.13552V6.75912H7.07471V6.55701Z" fill="white"/>
<path fill-rule="evenodd" clip-rule="evenodd" d="M7.64359 6.39969H7.70441V6.75741H7.64359V6.39969ZM7.49335 6.39969H7.55416V6.75741H7.49335V6.39969ZM6.69206 6.54278V6.60359H6.37012V6.54278H6.69206ZM7.39498 6.54278V6.60359H7.07303V6.54278H7.39498Z" fill="white"/>
<path fill-rule="evenodd" clip-rule="evenodd" d="M7.07471 6.55899H7.13552V6.75752H7.07471V6.55899Z" fill="white"/>
<path fill-rule="evenodd" clip-rule="evenodd" d="M7.07471 6.55899H7.13552V6.75752H7.07471V6.55899Z" fill="white"/>
<path fill-rule="evenodd" clip-rule="evenodd" d="M7.0745 6.55899H7.13531V6.75752H7.0745V6.55899ZM6.37158 6.55899H6.43061V6.75752H6.37158V6.55899ZM6.8867 6.55899H6.94751V6.75752H6.8867V6.55899ZM6.63093 6.55899H6.69174V6.75752H6.62914L6.63093 6.55899Z" fill="white"/>
<path fill-rule="evenodd" clip-rule="evenodd" d="M6.93007 6.6983V6.75911H6.6582V6.6983H6.93007ZM6.94795 6.54269V6.60351H6.77267V6.54269H6.94795Z" fill="white"/>
<path fill-rule="evenodd" clip-rule="evenodd" d="M7.82227 6.39969H8.69868V6.45871H7.82227V6.39969ZM7.95283 6.70017H8.01364V6.7592H7.95283V6.70017ZM8.70225 6.70017V6.7592H8.52518V6.69838L8.70225 6.70017ZM8.79705 6.39969H8.85607V6.75741H8.79705V6.39969Z" fill="white"/>
<path fill-rule="evenodd" clip-rule="evenodd" d="M9.14554 6.69831V6.75912H8.81287V6.69831H9.14554ZM8.52669 6.55701H8.5875V6.75912H8.5249L8.52669 6.55701Z" fill="white"/>
<path fill-rule="evenodd" clip-rule="evenodd" d="M9.09753 6.39969H9.15655V6.75741H9.09753V6.39969ZM8.9455 6.39969H9.00631V6.75741H8.9455V6.39969ZM8.14421 6.54278V6.60359H7.82227V6.54278H8.14421ZM8.84713 6.54278V6.60359H8.52518V6.54278H8.84713Z" fill="white"/>
<path fill-rule="evenodd" clip-rule="evenodd" d="M8.5249 6.55899H8.5875V6.75752H8.5249V6.55899Z" fill="white"/>
<path fill-rule="evenodd" clip-rule="evenodd" d="M8.5249 6.55899H8.5875V6.75752H8.5249V6.55899Z" fill="white"/>
<path fill-rule="evenodd" clip-rule="evenodd" d="M8.52486 6.55899H8.58746V6.75752H8.52486V6.55899ZM7.82373 6.55899H7.88454V6.75752H7.82373V6.55899ZM8.33885 6.55899H8.39966V6.75752H8.33885V6.55899ZM8.08308 6.55899H8.14389V6.75752H8.08308V6.55899Z" fill="white"/>
<path fill-rule="evenodd" clip-rule="evenodd" d="M8.38222 6.6983V6.75911H8.11035V6.6983H8.38222ZM8.4001 6.54269V6.60351H8.2284V6.54269H8.4001Z" fill="white"/>
<path fill-rule="evenodd" clip-rule="evenodd" d="M9.26562 6.39969H10.142V6.45871H9.26562V6.39969ZM9.39619 6.70017H9.457V6.7592H9.39619V6.70017ZM10.1474 6.70017V6.7592H9.97033V6.69838L10.1474 6.70017ZM10.2404 6.39969H10.3012V6.75741H10.2404V6.39969Z" fill="white"/>
<path fill-rule="evenodd" clip-rule="evenodd" d="M10.5891 6.69831V6.75912H10.2564V6.69831H10.5891ZM9.97021 6.55701H10.031V6.75912H9.97021V6.55701Z" fill="white"/>
<path fill-rule="evenodd" clip-rule="evenodd" d="M10.5411 6.39969H10.6001V6.75741H10.5411V6.39969ZM10.389 6.39969H10.4498V6.75741H10.389V6.39969ZM9.58774 6.54278V6.60359H9.26758V6.54278H9.58774ZM10.2907 6.54278V6.60359H9.97049V6.54278H10.2907Z" fill="white"/>
<path fill-rule="evenodd" clip-rule="evenodd" d="M9.97021 6.55899H10.031V6.75752H9.97021V6.55899Z" fill="white"/>
<path fill-rule="evenodd" clip-rule="evenodd" d="M9.97021 6.55899H10.031V6.75752H9.97021V6.55899Z" fill="white"/>
<path fill-rule="evenodd" clip-rule="evenodd" d="M9.97001 6.55899H10.0308V6.75752H9.97001V6.55899ZM9.26709 6.55899H9.3279V6.75752H9.26709V6.55899ZM9.7822 6.55899H9.84302V6.75752H9.7822V6.55899ZM9.52644 6.55899H9.58725V6.75752H9.52822L9.52644 6.55899Z" fill="white"/>
<path fill-rule="evenodd" clip-rule="evenodd" d="M9.82525 6.6983V6.75911H9.55518V6.6983H9.82525ZM9.84314 6.54269V6.60351H9.66965V6.54269H9.84314Z" fill="white"/>
<path fill-rule="evenodd" clip-rule="evenodd" d="M10.7109 6.39969H11.5873V6.45871H10.7109V6.39969ZM10.8415 6.70017H10.9023V6.7592H10.8415V6.70017ZM11.5909 6.70017V6.7592H11.4156V6.69838L11.5909 6.70017ZM11.6839 6.39969H11.7447V6.75741H11.6839V6.39969Z" fill="white"/>
<path fill-rule="evenodd" clip-rule="evenodd" d="M12.0347 6.69831V6.75912H11.702V6.69831H12.0347ZM11.4141 6.55701H11.4749V6.75912H11.4141V6.55701Z" fill="white"/>
<path fill-rule="evenodd" clip-rule="evenodd" d="M11.9844 6.39969H12.0452V6.75741H11.9844V6.39969ZM11.8342 6.39969H11.8932V6.75741H11.8342V6.39969ZM11.0329 6.54278V6.60359H10.7109V6.54278H11.0329ZM11.7358 6.54278V6.60359H11.4139V6.54278H11.7358Z" fill="white"/>
<path fill-rule="evenodd" clip-rule="evenodd" d="M11.4155 6.55899H11.4746V6.75752H11.4155V6.55899Z" fill="white"/>
<path fill-rule="evenodd" clip-rule="evenodd" d="M11.4155 6.55899H11.4746V6.75752H11.4155V6.55899Z" fill="white"/>
<path fill-rule="evenodd" clip-rule="evenodd" d="M11.4156 6.55899H11.4747V6.75752H11.4156V6.55899ZM10.7109 6.55899H10.7717V6.75752H10.7109V6.55899ZM11.2278 6.55899H11.2869V6.75752H11.2278V6.55899ZM10.9721 6.55899H11.0329V6.75752H10.9721V6.55899Z" fill="white"/>
<path fill-rule="evenodd" clip-rule="evenodd" d="M11.2691 6.6983V6.75911H10.999V6.6983H11.2691ZM11.287 6.54269V6.60351H11.1153V6.54269H11.287Z" fill="white"/>
<path fill-rule="evenodd" clip-rule="evenodd" d="M12.1631 6.39969H13.0395V6.45871H12.1631V6.39969ZM12.2937 6.70017H12.3545V6.7592H12.2937V6.70017ZM13.0431 6.70017V6.7592H12.8678V6.69838L13.0431 6.70017ZM13.1361 6.39969H13.1969V6.75741H13.1361V6.39969Z" fill="white"/>
<path fill-rule="evenodd" clip-rule="evenodd" d="M13.4865 6.69831V6.75912H13.1539V6.69831H13.4865ZM12.8677 6.55701H12.9267V6.75912H12.8677V6.55701Z" fill="white"/>
<path fill-rule="evenodd" clip-rule="evenodd" d="M13.4366 6.39969H13.4974V6.75741H13.4366V6.39969ZM13.2863 6.39969H13.3453V6.75741H13.2863V6.39969ZM12.485 6.54278V6.60359H12.1631V6.54278H12.485ZM13.1879 6.54278V6.60359H12.866V6.54278H13.1879Z" fill="white"/>
<path fill-rule="evenodd" clip-rule="evenodd" d="M12.8677 6.55899H12.9267V6.75752H12.8677V6.55899Z" fill="white"/>
<path fill-rule="evenodd" clip-rule="evenodd" d="M12.8677 6.55899H12.9267V6.75752H12.8677V6.55899Z" fill="white"/>
<path fill-rule="evenodd" clip-rule="evenodd" d="M12.8675 6.55899H12.9265V6.75752H12.8675V6.55899ZM12.1646 6.55899H12.2236V6.75752H12.1646V6.55899ZM12.6797 6.55899H12.7405V6.75752H12.6797V6.55899ZM12.4239 6.55899H12.4847V6.75752H12.4239V6.55899Z" fill="white"/>
<path fill-rule="evenodd" clip-rule="evenodd" d="M12.7212 6.6983V6.75911H12.4512V6.6983H12.7212ZM12.7391 6.54269V6.60351H12.5674V6.54269H12.7391Z" fill="white"/>
<path fill-rule="evenodd" clip-rule="evenodd" d="M-0.843262 6.39969H0.033148V6.45871H-0.843262V6.39969ZM-0.712695 6.70017H-0.651883V6.7592H-0.712695V6.70017ZM0.0385138 6.70017V6.7592H-0.138557V6.69838L0.0385138 6.70017ZM0.13152 6.39969H0.192333V6.75741H0.13152V6.39969Z" fill="white"/>
<path fill-rule="evenodd" clip-rule="evenodd" d="M0.480181 6.69831V6.75912H0.147503V6.69831H0.480181ZM-0.138672 6.55701H-0.0778599V6.75912H-0.138672V6.55701Z" fill="white"/>
<path fill-rule="evenodd" clip-rule="evenodd" d="M0.43168 6.39969H0.490704V6.75741H0.43168V6.39969ZM0.27965 6.39969H0.340462V6.75741H0.27965V6.39969ZM-0.521639 6.54278V6.60359H-0.841797V6.54278H-0.521639ZM0.181277 6.54278V6.60359H-0.13888V6.54278H0.181277Z" fill="white"/>
<path fill-rule="evenodd" clip-rule="evenodd" d="M2.05762 2.68661H2.93403V2.74743H2.05762V2.68661ZM2.18818 2.99068H2.249V3.04791H2.18818V2.99068ZM2.9376 2.9871V3.04791H2.76232V2.9871H2.9376ZM3.03061 2.68661H3.09142V3.04791H3.03061V2.68661Z" fill="white"/>
<path fill-rule="evenodd" clip-rule="evenodd" d="M3.38138 2.98722V3.04803H3.04871V2.98722H3.38138ZM2.76253 2.84592H2.81977V3.04803H2.76074L2.76253 2.84592Z" fill="white"/>
<path fill-rule="evenodd" clip-rule="evenodd" d="M3.33109 2.68661H3.39191V3.04791H3.33109V2.68661ZM3.18085 2.68661H3.23988V3.04791H3.18085V2.68661ZM2.37956 2.8297V2.89051H2.05762V2.83149L2.37956 2.8297ZM3.08248 2.8297V2.89051H2.76053V2.83149L3.08248 2.8297Z" fill="white"/>
<path fill-rule="evenodd" clip-rule="evenodd" d="M2.76253 2.84592H2.81977V3.04803H2.76074L2.76253 2.84592Z" fill="white"/>
<path fill-rule="evenodd" clip-rule="evenodd" d="M2.76253 2.84592H2.81977V3.04803H2.76074L2.76253 2.84592Z" fill="white"/>
<path fill-rule="evenodd" clip-rule="evenodd" d="M2.762 2.84592H2.81923V3.04803H2.76021L2.762 2.84592ZM2.05908 2.84592H2.11811V3.04803H2.05908V2.84592ZM2.5742 2.84592H2.63501V3.04803H2.5742V2.84592ZM2.31843 2.84592H2.37924V3.04803H2.31843V2.84592Z" fill="white"/>
<path fill-rule="evenodd" clip-rule="evenodd" d="M2.61578 2.98718V3.04799H2.3457V2.98718H2.61578ZM2.63367 2.83157V2.8906H2.46196V2.83157H2.63367Z" fill="white"/>
<path fill-rule="evenodd" clip-rule="evenodd" d="M0.616211 2.68661H1.49262V2.74743H0.616211V2.68661ZM0.746778 2.99068H0.80759V3.04791H0.744989L0.746778 2.99068ZM1.4962 2.9871V3.04791H1.32092V2.9871H1.4962ZM1.5892 2.68661H1.65002V3.04791H1.5892V2.68661Z" fill="white"/>
<path fill-rule="evenodd" clip-rule="evenodd" d="M1.93965 2.98722V3.04803H1.60698V2.98722H1.93965ZM1.3208 2.84592H1.37982V3.04803H1.3208V2.84592Z" fill="white"/>
<path fill-rule="evenodd" clip-rule="evenodd" d="M1.88969 2.68661H1.9505V3.04791H1.88969V2.68661ZM1.73945 2.68661H1.79847V3.04791H1.73945V2.68661ZM0.938157 2.8297V2.89051H0.616211V2.83149L0.938157 2.8297ZM1.64107 2.8297V2.89051H1.31913V2.83149L1.64107 2.8297Z" fill="white"/>
<path fill-rule="evenodd" clip-rule="evenodd" d="M1.3208 2.84592H1.37982V3.04803H1.3208V2.84592Z" fill="white"/>
<path fill-rule="evenodd" clip-rule="evenodd" d="M1.3208 2.84592H1.37982V3.04803H1.3208V2.84592Z" fill="white"/>
<path fill-rule="evenodd" clip-rule="evenodd" d="M1.32059 2.84592H1.37962V3.04803H1.32059V2.84592ZM0.617676 2.84592H0.676699V3.04803H0.617676V2.84592ZM1.13279 2.84592H1.19181V3.04803H1.13279V2.84592ZM0.877021 2.84592H0.937834V3.04803H0.877021V2.84592Z" fill="white"/>
<path fill-rule="evenodd" clip-rule="evenodd" d="M1.17405 2.98718V3.04799H0.905762V2.98718H1.17405ZM1.19194 2.83157V2.8906H1.02023V2.83157H1.19194Z" fill="white"/>
<path fill-rule="evenodd" clip-rule="evenodd" d="M3.48682 2.68661H4.36323V2.74743H3.48682V2.68661ZM3.61738 2.99068H3.6782V3.04791H3.61738V2.99068ZM4.3668 2.9871V3.04791H4.19152V2.9871H4.3668ZM4.4616 2.68661H4.52241V3.04791H4.4616V2.68661Z" fill="white"/>
<path fill-rule="evenodd" clip-rule="evenodd" d="M4.81026 2.98722V3.04803H4.47758V2.98722H4.81026ZM4.19141 2.84592H4.25222V3.04803H4.19141V2.84592Z" fill="white"/>
<path fill-rule="evenodd" clip-rule="evenodd" d="M4.76029 2.68661H4.82111V3.04791H4.76029V2.68661ZM4.61005 2.68661H4.67086V3.04791H4.60826L4.61005 2.68661ZM3.80876 2.8297V2.89051H3.48682V2.83149L3.80876 2.8297ZM4.51168 2.8297V2.89051H4.18973V2.83149L4.51168 2.8297Z" fill="white"/>
<path fill-rule="evenodd" clip-rule="evenodd" d="M4.19141 2.84592H4.25222V3.04803H4.19141V2.84592Z" fill="white"/>
<path fill-rule="evenodd" clip-rule="evenodd" d="M4.19141 2.84592H4.25222V3.04803H4.19141V2.84592Z" fill="white"/>
<path fill-rule="evenodd" clip-rule="evenodd" d="M4.1912 2.84592H4.25201V3.04803H4.1912V2.84592ZM3.48828 2.84592H3.54909V3.04803H3.48828V2.84592ZM4.0034 2.84592H4.06421V3.04803H4.0034V2.84592ZM3.74763 2.84592H3.80844V3.04803H3.74763V2.84592Z" fill="white"/>
<path fill-rule="evenodd" clip-rule="evenodd" d="M4.04677 2.98718V3.04799H3.7749V2.98718H4.04677ZM4.06465 2.83157V2.8906H3.89295V2.83157H4.06465Z" fill="white"/>
<path fill-rule="evenodd" clip-rule="evenodd" d="M13.5815 2.68661H14.458V2.74743H13.5815V2.68661ZM13.7121 2.99068H13.7729V3.04791H13.7121V2.99068ZM14.4615 2.9871V3.04791H14.2845V2.9871H14.4615ZM14.5563 2.68661H14.6153V3.04791H14.5545L14.5563 2.68661Z" fill="white"/>
<path fill-rule="evenodd" clip-rule="evenodd" d="M14.8568 2.68661H14.9158V3.04791H14.855L14.8568 2.68661ZM14.7048 2.68661H14.7656V3.04791H14.7048V2.68661ZM13.9035 2.8297V2.89051H13.5815V2.83149L13.9035 2.8297ZM14.6064 2.8297V2.89051H14.2845V2.83149L14.6064 2.8297Z" fill="white"/>
<path fill-rule="evenodd" clip-rule="evenodd" d="M14.2841 2.84592H14.3467V3.04803H14.2841V2.84592ZM13.583 2.84592H13.6438V3.04803H13.583V2.84592ZM14.0981 2.84592H14.1589V3.04803H14.0981V2.84592ZM13.8424 2.84592H13.9032V3.04803H13.8424V2.84592Z" fill="white"/>
<path fill-rule="evenodd" clip-rule="evenodd" d="M14.1415 2.98718V3.04799H13.8696V2.98718H14.1415ZM14.1594 2.83157V2.8906H13.9877V2.83157H14.1594Z" fill="white"/>
<path fill-rule="evenodd" clip-rule="evenodd" d="M4.9248 2.68661H5.803V2.74743H4.92659L4.9248 2.68661ZM5.05716 2.99068H5.11618V3.04791H5.05716V2.99068ZM5.80479 2.9871V3.04791H5.62951V2.9871H5.80479ZM5.89959 2.68661H5.9604V3.04791H5.89959V2.68661Z" fill="white"/>
<path fill-rule="evenodd" clip-rule="evenodd" d="M6.25004 2.98722V3.04803H5.91736V2.98722H6.25004ZM5.62939 2.84592H5.69021V3.04803H5.62939V2.84592Z" fill="white"/>
<path fill-rule="evenodd" clip-rule="evenodd" d="M6.19975 2.68661H6.26056V3.04791H6.19975V2.68661ZM6.04772 2.68661H6.10853V3.04791H6.04772V2.68661ZM5.24643 2.8297V2.89051H4.92627V2.83149L5.24643 2.8297ZM5.94934 2.8297V2.89051H5.62919V2.83149L5.94934 2.8297Z" fill="white"/>
<path fill-rule="evenodd" clip-rule="evenodd" d="M5.62939 2.84592H5.69021V3.04803H5.62939V2.84592Z" fill="white"/>
<path fill-rule="evenodd" clip-rule="evenodd" d="M5.62939 2.84592H5.69021V3.04803H5.62939V2.84592Z" fill="white"/>
<path fill-rule="evenodd" clip-rule="evenodd" d="M5.62919 2.84592H5.69V3.04803H5.62919V2.84592ZM4.92627 2.84592H4.98708V3.04803H4.92627V2.84592ZM5.44138 2.84592H5.5022V3.04803H5.44138V2.84592ZM5.1874 2.84592H5.24643V3.04803H5.1874V2.84592Z" fill="white"/>
<path fill-rule="evenodd" clip-rule="evenodd" d="M5.48443 2.98718V3.04799H5.21436V2.98718H5.48443ZM5.50232 2.83157V2.8906H5.33061V2.83157H5.50232Z" fill="white"/>
<path fill-rule="evenodd" clip-rule="evenodd" d="M6.37012 2.68661H7.24653V2.74743H6.37012V2.68661ZM6.50068 2.99068H6.5615V3.04791H6.50068V2.99068ZM7.2501 2.9871V3.04791H7.07482V2.9871H7.2501ZM7.3449 2.68661H7.40392V3.04791H7.3449V2.68661Z" fill="white"/>
<path fill-rule="evenodd" clip-rule="evenodd" d="M7.69356 2.98722V3.04803H7.36088V2.98722H7.69356ZM7.07471 2.84592H7.13552V3.04803H7.07471V2.84592Z" fill="white"/>
<path fill-rule="evenodd" clip-rule="evenodd" d="M7.64359 2.68661H7.70441V3.04791H7.64359V2.68661ZM7.49335 2.68661H7.55416V3.04791H7.49335V2.68661ZM6.69206 2.8297V2.89051H6.37012V2.83149L6.69206 2.8297ZM7.39498 2.8297V2.89051H7.07303V2.83149L7.39498 2.8297Z" fill="white"/>
<path fill-rule="evenodd" clip-rule="evenodd" d="M7.07471 2.84592H7.13552V3.04803H7.07471V2.84592Z" fill="white"/>
<path fill-rule="evenodd" clip-rule="evenodd" d="M7.07471 2.84592H7.13552V3.04803H7.07471V2.84592Z" fill="white"/>
<path fill-rule="evenodd" clip-rule="evenodd" d="M7.0745 2.84592H7.13531V3.04803H7.0745V2.84592ZM6.37158 2.84592H6.43061V3.04803H6.37158V2.84592ZM6.8867 2.84592H6.94751V3.04803H6.8867V2.84592ZM6.63093 2.84592H6.69174V3.04803H6.62914L6.63093 2.84592Z" fill="white"/>
<path fill-rule="evenodd" clip-rule="evenodd" d="M6.93007 2.98718V3.04799H6.6582V2.98718H6.93007ZM6.94795 2.83157V2.8906H6.77267V2.83157H6.94795Z" fill="white"/>
<path fill-rule="evenodd" clip-rule="evenodd" d="M7.82227 2.68661H8.69868V2.74743H7.82227V2.68661ZM7.95283 2.99068H8.01364V3.04791H7.95283V2.99068ZM8.70225 2.9871V3.04791H8.52518V2.9871H8.70225ZM8.79705 2.68661H8.85607V3.04791H8.79705V2.68661Z" fill="white"/>
<path fill-rule="evenodd" clip-rule="evenodd" d="M9.14554 2.98722V3.04803H8.81287V2.98722H9.14554ZM8.52669 2.84592H8.5875V3.04803H8.5249L8.52669 2.84592Z" fill="white"/>
<path fill-rule="evenodd" clip-rule="evenodd" d="M9.09753 2.68661H9.15655V3.04791H9.09753V2.68661ZM8.9455 2.68661H9.00631V3.04791H8.9455V2.68661ZM8.14421 2.8297V2.89051H7.82227V2.83149L8.14421 2.8297ZM8.84713 2.8297V2.89051H8.52518V2.83149L8.84713 2.8297Z" fill="white"/>
<path fill-rule="evenodd" clip-rule="evenodd" d="M8.5249 2.84592H8.5875V3.04803H8.5249V2.84592Z" fill="white"/>
<path fill-rule="evenodd" clip-rule="evenodd" d="M8.5249 2.84592H8.5875V3.04803H8.5249V2.84592Z" fill="white"/>
<path fill-rule="evenodd" clip-rule="evenodd" d="M8.52486 2.84592H8.58746V3.04803H8.52486V2.84592ZM7.82373 2.84592H7.88454V3.04803H7.82373V2.84592ZM8.33885 2.84592H8.39966V3.04803H8.33885V2.84592ZM8.08308 2.84592H8.14389V3.04803H8.08308V2.84592Z" fill="white"/>
<path fill-rule="evenodd" clip-rule="evenodd" d="M8.38222 2.98718V3.04799H8.11035V2.98718H8.38222ZM8.4001 2.83157V2.8906H8.2284V2.83157H8.4001Z" fill="white"/>
<path fill-rule="evenodd" clip-rule="evenodd" d="M9.26562 2.68661H10.142V2.74743H9.26562V2.68661ZM9.39619 2.99068H9.457V3.04791H9.39619V2.99068ZM10.1474 2.9871V3.04791H9.97033V2.9871H10.1474ZM10.2404 2.68661H10.3012V3.04791H10.2404V2.68661Z" fill="white"/>
<path fill-rule="evenodd" clip-rule="evenodd" d="M10.5891 2.98722V3.04803H10.2564V2.98722H10.5891ZM9.97021 2.84592H10.031V3.04803H9.97021V2.84592Z" fill="white"/>
<path fill-rule="evenodd" clip-rule="evenodd" d="M10.5411 2.68661H10.6001V3.04791H10.5411V2.68661ZM10.389 2.68661H10.4498V3.04791H10.389V2.68661ZM9.58774 2.8297V2.89051H9.26758V2.83149L9.58774 2.8297ZM10.2907 2.8297V2.89051H9.97049V2.83149L10.2907 2.8297Z" fill="white"/>
<path fill-rule="evenodd" clip-rule="evenodd" d="M9.97021 2.84592H10.031V3.04803H9.97021V2.84592Z" fill="white"/>
<path fill-rule="evenodd" clip-rule="evenodd" d="M9.97021 2.84592H10.031V3.04803H9.97021V2.84592Z" fill="white"/>
<path fill-rule="evenodd" clip-rule="evenodd" d="M9.97001 2.84592H10.0308V3.04803H9.97001V2.84592ZM9.26709 2.84592H9.3279V3.04803H9.26709V2.84592ZM9.7822 2.84592H9.84302V3.04803H9.7822V2.84592ZM9.52644 2.84592H9.58725V3.04803H9.52822L9.52644 2.84592Z" fill="white"/>
<path fill-rule="evenodd" clip-rule="evenodd" d="M9.82525 2.98718V3.04799H9.55518V2.98718H9.82525ZM9.84314 2.83157V2.8906H9.66965V2.83157H9.84314Z" fill="white"/>
<path fill-rule="evenodd" clip-rule="evenodd" d="M10.7109 2.68661H11.5873V2.74743H10.7109V2.68661ZM10.8415 2.99068H10.9023V3.04791H10.8415V2.99068ZM11.5909 2.9871V3.04791H11.4156V2.9871H11.5909ZM11.6839 2.68661H11.7447V3.04791H11.6839V2.68661Z" fill="white"/>
<path fill-rule="evenodd" clip-rule="evenodd" d="M12.0347 2.98722V3.04803H11.702V2.98722H12.0347ZM11.4141 2.84592H11.4749V3.04803H11.4141V2.84592Z" fill="white"/>
<path fill-rule="evenodd" clip-rule="evenodd" d="M11.9844 2.68661H12.0452V3.04791H11.9844V2.68661ZM11.8342 2.68661H11.8932V3.04791H11.8342V2.68661ZM11.0329 2.8297V2.89051H10.7109V2.83149L11.0329 2.8297ZM11.7358 2.8297V2.89051H11.4139V2.83149L11.7358 2.8297Z" fill="white"/>
<path fill-rule="evenodd" clip-rule="evenodd" d="M11.4155 2.84592H11.4746V3.04803H11.4155V2.84592Z" fill="white"/>
<path fill-rule="evenodd" clip-rule="evenodd" d="M11.4155 2.84592H11.4746V3.04803H11.4155V2.84592Z" fill="white"/>
<path fill-rule="evenodd" clip-rule="evenodd" d="M11.4156 2.84592H11.4747V3.04803H11.4156V2.84592ZM10.7109 2.84592H10.7717V3.04803H10.7109V2.84592ZM11.2278 2.84592H11.2869V3.04803H11.2278V2.84592ZM10.9721 2.84592H11.0329V3.04803H10.9721V2.84592Z" fill="white"/>
<path fill-rule="evenodd" clip-rule="evenodd" d="M11.2691 2.98718V3.04799H10.999V2.98718H11.2691ZM11.287 2.83157V2.8906H11.1153V2.83157H11.287Z" fill="white"/>
<path fill-rule="evenodd" clip-rule="evenodd" d="M12.1631 2.68661H13.0395V2.74743H12.1631V2.68661ZM12.2937 2.99068H12.3545V3.04791H12.2937V2.99068ZM13.0431 2.9871V3.04791H12.8678V2.9871H13.0431ZM13.1361 2.68661H13.1969V3.04791H13.1361V2.68661Z" fill="white"/>
<path fill-rule="evenodd" clip-rule="evenodd" d="M13.4865 2.98722V3.04803H13.1539V2.98722H13.4865ZM12.8677 2.84592H12.9267V3.04803H12.8677V2.84592Z" fill="white"/>
<path fill-rule="evenodd" clip-rule="evenodd" d="M13.4366 2.68661H13.4974V3.04791H13.4366V2.68661ZM13.2863 2.68661H13.3453V3.04791H13.2863V2.68661ZM12.485 2.8297V2.89051H12.1631V2.83149L12.485 2.8297ZM13.1879 2.8297V2.89051H12.866V2.83149L13.1879 2.8297Z" fill="white"/>
<path fill-rule="evenodd" clip-rule="evenodd" d="M12.8677 2.84592H12.9267V3.04803H12.8677V2.84592Z" fill="white"/>
<path fill-rule="evenodd" clip-rule="evenodd" d="M12.8677 2.84592H12.9267V3.04803H12.8677V2.84592Z" fill="white"/>
<path fill-rule="evenodd" clip-rule="evenodd" d="M12.8675 2.84592H12.9265V3.04803H12.8675V2.84592ZM12.1646 2.84592H12.2236V3.04803H12.1646V2.84592ZM12.6797 2.84592H12.7405V3.04803H12.6797V2.84592ZM12.4239 2.84592H12.4847V3.04803H12.4239V2.84592Z" fill="white"/>
<path fill-rule="evenodd" clip-rule="evenodd" d="M12.7212 2.98718V3.04799H12.4512V2.98718H12.7212ZM12.7391 2.83157V2.8906H12.5674V2.83157H12.7391Z" fill="white"/>
<path fill-rule="evenodd" clip-rule="evenodd" d="M-0.843262 2.68661H0.033148V2.74743H-0.843262V2.68661ZM-0.712695 2.99068H-0.651883V3.04791H-0.712695V2.99068ZM0.0385138 2.9871V3.04791H-0.138557V2.9871H0.0385138ZM0.13152 2.68661H0.192333V3.04791H0.13152V2.68661Z" fill="white"/>
<path fill-rule="evenodd" clip-rule="evenodd" d="M0.480181 2.98722V3.04803H0.147503V2.98722H0.480181ZM-0.138672 2.84592H-0.0778599V3.04803H-0.138672V2.84592Z" fill="white"/>
<path fill-rule="evenodd" clip-rule="evenodd" d="M0.43168 2.68661H0.490704V3.04791H0.43168V2.68661ZM0.27965 2.68661H0.340462V3.04791H0.27965V2.68661ZM-0.521639 2.8297V2.89051H-0.841797V2.83149L-0.521639 2.8297ZM0.181277 2.8297V2.89051H-0.13888V2.83149L0.181277 2.8297Z" fill="white"/>
<path fill-rule="evenodd" clip-rule="evenodd" d="M1.21331 6.19403H1.32063V6.38183H1.21331V6.19403ZM4.084 6.19403H4.19131V6.38183H4.084V6.19403ZM-0.990234 6.19403H-0.882919V6.38183H-0.990234V6.19403ZM0.467467 6.19403H0.574783V6.38183H0.467467V6.19403ZM1.91444 6.19403H2.02175V6.38183H1.91444V6.19403ZM2.62987 6.19403H2.73719V6.38183H2.62987V6.19403ZM3.36141 6.19403H3.46872V6.38183H3.36141V6.19403ZM4.79944 6.19403H4.90675V6.38183H4.79944V6.19403ZM8.43028 6.19403H8.53938V6.38183H8.43206L8.43028 6.19403ZM5.53097 6.19403H5.63828V6.38183H5.53097V6.19403ZM6.24641 6.19403H6.35372V6.38183H6.24641V6.19403ZM6.97079 6.19403H7.0781V6.38183H6.97079V6.19403ZM7.69338 6.19403H7.80069V6.38183H7.69338V6.19403ZM13.4741 6.19403H13.5814V6.38183H13.4741V6.19403ZM9.13319 6.19403H9.24051V6.38183H9.13319V6.19403ZM9.86294 6.19403H9.97025V6.38183H9.86294V6.19403ZM10.6016 6.19403H10.7089V6.38183H10.6016V6.19403ZM11.2956 6.19403H11.4029V6.38183H11.2956V6.19403ZM12.0343 6.19403H12.1416V6.38183H12.0343V6.19403ZM12.7569 6.19403H12.8642V6.38183H12.7569V6.19403ZM14.8978 6.19403H15.0051V6.38183H14.8978V6.19403ZM14.2038 6.19403H14.3112V6.38183H14.2038V6.19403ZM-0.264066 6.19403H-0.156751V6.38183H-0.264066V6.19403Z" fill="#D90000"/>
<path fill-rule="evenodd" clip-rule="evenodd" d="M1.21331 3.02991H1.32063V3.21771H1.21331V3.02991ZM4.084 3.02991H4.19131V3.21771H4.084V3.02991ZM-0.990234 3.02991H-0.882919V3.21771H-0.990234V3.02991ZM0.467467 3.02991H0.574783V3.21771H0.467467V3.02991ZM1.91444 3.02991H2.02175V3.21771H1.91444V3.02991ZM2.62987 3.02991H2.73719V3.21771H2.62987V3.02991ZM3.36141 3.02991H3.46872V3.21771H3.36141V3.02991ZM4.79944 3.02991H4.90675V3.21771H4.79944V3.02991ZM8.43028 3.02991H8.53938V3.21771H8.43206L8.43028 3.02991ZM5.53097 3.02991H5.63828V3.21771H5.53097V3.02991ZM6.24641 3.02991H6.35372V3.21771H6.24641V3.02991ZM6.97079 3.02991H7.0781V3.21771H6.97079V3.02991ZM7.69338 3.02991H7.80069V3.21771H7.69338V3.02991ZM13.4741 3.02991H13.5814V3.21771H13.4741V3.02991ZM9.13319 3.02991H9.24051V3.21771H9.13319V3.02991ZM9.86294 3.02991H9.97025V3.21771H9.86294V3.02991ZM10.6016 3.02991H10.7089V3.21771H10.6016V3.02991ZM11.2956 3.02991H11.4029V3.21771H11.2956V3.02991ZM12.0343 3.02991H12.1416V3.21771H12.0343V3.02991ZM12.7569 3.02991H12.8642V3.21771H12.7569V3.02991ZM14.8978 3.02991H15.0051V3.21771H14.8978V3.02991ZM14.2038 3.02991H14.3112V3.21771H14.2038V3.02991ZM-0.264066 3.02991H-0.156751V3.21771H-0.264066V3.02991Z" fill="#239E3F"/>
<path fill-rule="evenodd" clip-rule="evenodd" d="M7.39789 3.78082C7.52945 3.94371 7.93824 4.8396 7.15199 5.4285C6.78079 5.70729 7.01103 5.71982 7.02199 5.76681C7.61716 5.452 7.80981 5.02285 7.80511 4.63912C7.80198 4.25696 7.59836 3.91865 7.39789 3.78082Z" fill="#DA0000"/>
<path fill-rule="evenodd" clip-rule="evenodd" d="M7.47643 3.73849C7.62175 3.82692 7.7456 3.94653 7.83903 4.08868C7.93246 4.23083 7.99314 4.39196 8.01667 4.56043C8.0402 4.7289 8.026 4.9005 7.9751 5.06281C7.92419 5.22512 7.83786 5.37409 7.72233 5.49894C8.14835 5.40497 8.6934 4.14572 7.47643 3.73849ZM6.57428 3.73849C6.42908 3.82705 6.30537 3.94676 6.21209 4.08898C6.1188 4.23119 6.05829 4.39235 6.03491 4.56081C6.01153 4.72928 6.02587 4.90083 6.07689 5.06307C6.12792 5.22531 6.21435 5.37419 6.32995 5.49894C5.90237 5.40497 5.35888 4.14572 6.57428 3.73849Z" fill="#DA0000"/>
<path fill-rule="evenodd" clip-rule="evenodd" d="M6.65242 3.78082C6.52086 3.94371 6.11207 4.8396 6.89832 5.4285C7.26795 5.70729 7.03928 5.71982 7.02832 5.76681C6.43315 5.452 6.2405 5.02285 6.2452 4.63912C6.24833 4.25696 6.45194 3.91865 6.65242 3.78082Z" fill="#DA0000"/>
<path fill-rule="evenodd" clip-rule="evenodd" d="M7.7804 5.68528C7.54704 5.68841 7.25415 5.65395 7.03644 5.53962C7.07247 5.6101 7.10222 5.65395 7.13825 5.72287C7.34499 5.74323 7.63161 5.76672 7.7804 5.68528ZM6.29248 5.68528C6.52585 5.68841 6.81874 5.65395 7.03644 5.53962C7.00042 5.6101 6.97066 5.65395 6.93464 5.72287C6.72789 5.74323 6.44127 5.76672 6.29248 5.68528ZM6.72006 3.51291C6.76705 3.63821 6.89078 3.657 7.02235 3.58339C7.11945 3.63977 7.26825 3.64447 7.31993 3.51917C7.35909 3.82929 7.03331 3.75411 7.02235 3.69459C6.90018 3.81206 6.67464 3.74471 6.72006 3.51291Z" fill="#DA0000"/>
<path fill-rule="evenodd" clip-rule="evenodd" d="M7.03181 5.88106L7.15397 5.7401L7.1712 3.85905L7.02554 3.73062L6.87988 3.85279L6.90964 5.74793L7.03181 5.88106Z" fill="#DA0000"/>
</g>
</svg>
