<svg width="13" height="14" viewBox="0 0 13 14" fill="none" xmlns="http://www.w3.org/2000/svg">
<path fill-rule="evenodd" clip-rule="evenodd" d="M4.84416 0.726623C5.73548 -0.242208 7.26452 -0.242207 8.15585 0.726623L12.0097 4.91564C12.6466 5.60783 13 6.51404 13 7.4546V10.7845C13 12.3033 11.7688 13.5345 10.25 13.5345H8.5C7.67157 13.5345 7 12.863 7 12.0345V10.0345H6V12.0345C6 12.863 5.32843 13.5345 4.5 13.5345H2.75C1.23122 13.5345 0 12.3033 0 10.7845V7.4546C0 6.51404 0.353447 5.60783 0.990259 4.91564L4.84416 0.726623ZM7.05195 1.74221C6.75484 1.41926 6.24516 1.41926 5.94805 1.74221L2.09416 5.93123C1.71207 6.34654 1.5 6.89027 1.5 7.4546V10.7845C1.5 11.4749 2.05964 12.0345 2.75 12.0345H4.5V10.0345C4.5 9.2061 5.17157 8.53453 6 8.53453H7C7.82843 8.53453 8.5 9.2061 8.5 10.0345V12.0345H10.25C10.9404 12.0345 11.5 11.4749 11.5 10.7845V7.4546C11.5 6.89027 11.2879 6.34654 10.9058 5.93123L7.05195 1.74221Z" fill="#4A4A4A"/>
</svg>
