<svg width="14" height="15" viewBox="0 0 14 15" fill="none" xmlns="http://www.w3.org/2000/svg">
<path fill-rule="evenodd" clip-rule="evenodd" d="M4.17683 11.4239L1.73091 11.1427C-0.12376 10.9295 -0.64977 8.48437 0.953181 7.52739L1.01811 7.48863C1.89081 6.96761 2.42526 6.02609 2.42526 5.00969V4.5C2.42526 2.01472 4.43998 0 6.92526 0C9.41054 0 11.4253 2.01472 11.4253 4.5V5.00969C11.4253 6.02609 11.9597 6.96761 12.8324 7.48863L12.8973 7.52739C14.5003 8.48438 13.9743 10.9295 12.1196 11.1427L9.57683 11.435V11.8C9.57683 13.2912 8.368 14.5 6.87683 14.5C5.38566 14.5 4.17683 13.2912 4.17683 11.8V11.4239ZM8.07683 11.5H5.67683V11.8C5.67683 12.4627 6.21409 13 6.87683 13C7.53957 13 8.07683 12.4627 8.07683 11.8V11.5ZM4.92526 10H8.92526L11.9483 9.65252C12.3778 9.60316 12.4996 9.03693 12.1284 8.81532L12.0635 8.77656C11.9839 8.72907 11.9063 8.67929 11.8305 8.62731C11.6754 8.52097 11.5284 8.40546 11.3899 8.28179C11.3653 8.25985 11.341 8.23766 11.317 8.21521C10.4392 7.39498 9.92526 6.23833 9.92526 5.00969V4.5C9.92526 2.84315 8.58211 1.5 6.92526 1.5C5.2684 1.5 3.92526 2.84315 3.92526 4.5V5.00969C3.92526 6.23833 3.41131 7.39498 2.53351 8.21521C2.50949 8.23766 2.4852 8.25985 2.46063 8.28179C2.32215 8.40546 2.1751 8.52097 2.02004 8.62731C1.94426 8.67928 1.86656 8.72907 1.78702 8.77656L1.7221 8.81532C1.3509 9.03693 1.47271 9.60316 1.90219 9.65252L4.92526 10Z" fill="#E3E3E3"/>
</svg>
