<svg width="240" height="56" viewBox="0 0 240 56" fill="none" xmlns="http://www.w3.org/2000/svg">
<g clip-path="url(#clip0_15_1189)">
<rect width="240" height="56" fill="#1A1A1A"/>
<rect x="128" y="6" width="96" height="44" rx="3" fill="#1A1A1A"/>
<path d="M157.775 29.6795C157.775 32.1449 155.776 34.1443 153.312 34.1443H134.537V16H131.161V35.7172H153.312C157.639 35.7172 161.148 32.2073 161.148 27.8777V21.8546H157.773V29.6774L157.775 29.6795Z" fill="white"/>
<path d="M119.433 16.0017H116.062V35.7197H119.433V16.0017Z" fill="white"/>
<path d="M123.596 36.7458C123.596 37.6737 122.846 38.4249 121.918 38.4249H119.013V39.9999H121.511C124.524 39.9999 126.968 37.5551 126.968 34.5404V21.857H123.599V36.7458H123.596Z" fill="white"/>
<path d="M108.498 36.7458C108.498 37.6737 107.747 38.4249 106.82 38.4249H103.914V39.9999H105.919C109.205 39.9999 111.869 37.3347 111.869 34.0472V21.857H108.5V36.7458H108.498Z" fill="white"/>
<path d="M222.01 37.7824H218.641V39.9977H222.01V37.7824Z" fill="white"/>
<path d="M161.148 37.7824H157.779V39.9977H161.148V37.7824Z" fill="white"/>
<path d="M126.981 16.0017H123.613V18.217H126.981V16.0017Z" fill="white"/>
<path d="M210.37 38.4239H200.057V39.9988H210.37V38.4239Z" fill="white"/>
<path d="M222.009 21.8561H218.642V30.0076C218.642 32.292 216.791 34.1458 214.505 34.1458C212.22 34.1458 210.369 32.2941 210.369 30.0076V21.8561H207.1H207V28.2121V30.2323C207 32.394 205.249 34.1458 203.088 34.1458C201.501 34.1458 200.072 33.1866 199.469 31.7178L196.3 23.9866C195.381 21.7438 193.199 20.2811 190.776 20.2811C187.896 20.2811 185.427 22.3367 184.905 25.1704L183.481 32.8954C183.373 33.4842 182.942 33.9877 182.358 34.1125C181.64 34.2664 180.948 33.8732 180.696 33.2199L177.306 24.4318C176.341 21.931 173.937 20.2811 171.259 20.2811C167.677 20.2811 164.776 23.1856 164.776 26.7661V35.7207H174.632V34.1458H168.152V24.6565C168.152 23.1107 169.403 21.8582 170.949 21.8582C172.109 21.8582 173.149 22.5739 173.563 23.6578L176.795 32.1256C177.527 34.0437 179.238 35.4752 181.28 35.6895C182.913 35.8623 184.439 35.288 185.537 34.2478L189.672 35.4378C191.932 36.0889 194.411 35.6125 196.163 34.0417C196.262 33.9522 196.358 33.8607 196.452 33.7671C196.606 33.6131 196.749 33.4509 196.888 33.2845C198.336 34.8095 200.372 35.7186 202.555 35.7186C204.997 35.7186 207.176 34.5973 208.609 32.8434C209.984 34.593 212.111 35.7186 214.507 35.7186C218.652 35.7186 222.011 32.3565 222.011 28.2121V21.8561H222.009ZM195.204 30.7254C195.006 33.1618 192.479 34.7096 190.152 33.9647L186.607 32.8309C186.844 32.3732 187.02 31.8759 187.12 31.3454L188.615 23.3416C188.776 22.4803 189.528 21.854 190.406 21.854C191.144 21.854 191.81 22.3013 192.091 22.9837L195.208 30.5881C195.206 30.6338 195.208 30.6775 195.202 30.7233L195.204 30.7254Z" fill="white"/>
</g>
<defs>
<clipPath id="clip0_15_1189">
<rect width="240" height="56" fill="white"/>
</clipPath>
</defs>
</svg>
