<svg width="13" height="13" viewBox="0 0 13 13" fill="none" xmlns="http://www.w3.org/2000/svg">
<path fill-rule="evenodd" clip-rule="evenodd" d="M3.47553 0C2.1124 0 0.954988 0.998578 0.755223 2.34699L0.0944698 6.80708C0.0315752 7.23161 0 7.6602 0 8.08938V9.75C0 11.5449 1.45507 13 3.25 13H9.75C11.5449 13 13 11.5449 13 9.75V8.08938C13 7.6602 12.9684 7.23161 12.9055 6.80708L12.2448 2.34699C12.045 0.998579 10.8876 0 9.52447 0H3.47553ZM2.23903 2.56681C2.32983 1.9539 2.85593 1.5 3.47553 1.5H9.52447C10.1441 1.5 10.6702 1.9539 10.761 2.56681L11.3437 6.5H8.86038C8.32234 6.5 7.84467 6.84429 7.67453 7.35472L7.51641 7.82906C7.48238 7.93114 7.38685 8 7.27924 8H5.72076C5.61315 8 5.51762 7.93114 5.48359 7.82906L5.32547 7.35472C5.15533 6.84429 4.67766 6.5 4.13962 6.5H1.65633L2.23903 2.56681ZM1.50055 8C1.50018 8.02979 1.5 8.05958 1.5 8.08938V9.75C1.5 10.7165 2.2835 11.5 3.25 11.5H9.75C10.7165 11.5 11.5 10.7165 11.5 9.75V8.08938C11.5 8.05958 11.4998 8.02979 11.4994 8H9.04057L8.93944 8.3034C8.70124 9.018 8.03249 9.5 7.27924 9.5H5.72076C4.96751 9.5 4.29876 9.018 4.06056 8.3034L3.95943 8H1.50055Z" fill="#4A4A4A"/>
</svg>
