<svg width="12" height="14" viewBox="0 0 12 14" fill="none" xmlns="http://www.w3.org/2000/svg">
<path fill-rule="evenodd" clip-rule="evenodd" d="M4.5 0C3.4801 0 2.6385 0.763422 2.51547 1.75H2.25C1.00736 1.75 0 2.75736 0 4V11.75C0 12.9926 1.00736 14 2.25 14H9.75C10.9926 14 12 12.9926 12 11.75V4C12 2.75736 10.9926 1.75 9.75 1.75H9.48453C9.3615 0.763422 8.5199 0 7.5 0H4.5ZM7.5 1.5H4.5C4.22386 1.5 4 1.72386 4 2V3C4 3.27614 4.22386 3.5 4.5 3.5H7.5C7.77614 3.5 8 3.27614 8 3V2C8 1.72386 7.77614 1.5 7.5 1.5ZM9.28033 7.28033C9.57322 6.98744 9.57322 6.51256 9.28033 6.21967C8.98744 5.92678 8.51256 5.92678 8.21967 6.21967L5.25 9.18934L4.03033 7.96967C3.73744 7.67678 3.26256 7.67678 2.96967 7.96967C2.67678 8.26256 2.67678 8.73744 2.96967 9.03033L4.71967 10.7803C5.01256 11.0732 5.48744 11.0732 5.78033 10.7803L9.28033 7.28033Z" fill="#4A4A4A"/>
</svg>
