<svg width="13" height="14" viewBox="0 0 13 14" fill="none" xmlns="http://www.w3.org/2000/svg">
<path fill-rule="evenodd" clip-rule="evenodd" d="M6.09088 0C4.15788 0 2.59088 1.567 2.59088 3.5C2.59088 5.433 4.15788 7 6.09088 7C8.02388 7 9.59088 5.433 9.59088 3.5C9.59088 1.567 8.02388 0 6.09088 0ZM4.09088 3.5C4.09088 2.39543 4.98631 1.5 6.09088 1.5C7.19545 1.5 8.09088 2.39543 8.09088 3.5C8.09088 4.60457 7.19545 5.5 6.09088 5.5C4.98631 5.5 4.09088 4.60457 4.09088 3.5Z" fill="#4A4A4A"/>
<path fill-rule="evenodd" clip-rule="evenodd" d="M11.5748 11.2268C10.4684 9.23519 8.36917 8 6.09087 8C3.81257 8 1.71335 9.23519 0.606913 11.2268L0.170255 12.0128C-0.325062 12.9043 0.319631 14 1.33955 14H10.8422C11.8621 14 12.5068 12.9043 12.0115 12.0128L11.5748 11.2268ZM1.91815 11.9552C2.76004 10.4398 4.35732 9.5 6.09087 9.5C7.82442 9.5 9.42171 10.4398 10.2636 11.9552L10.5662 12.5H1.61551L1.91815 11.9552Z" fill="#4A4A4A"/>
</svg>
