<svg width="8" height="8" viewBox="0 0 8 8" fill="none" xmlns="http://www.w3.org/2000/svg">
<path fill-rule="evenodd" clip-rule="evenodd" d="M2.88801 0.0171648L2.87085 0L2.85185 0.0189999C2.59825 0.032557 2.40178 0.0580028 2.22354 0.105763C1.18827 0.383164 0.379624 1.19181 0.102223 2.22708C0 2.60858 0 3.07357 0 4.00354C0 4.93351 0 5.3985 0.102223 5.78C0.379624 6.81527 1.18827 7.62392 2.22354 7.90132C2.60504 8.00354 3.07003 8.00354 4 8.00354C4.92997 8.00354 5.39496 8.00354 5.77646 7.90132C6.81173 7.62392 7.62038 6.81527 7.89778 5.78C8 5.3985 8 4.93351 8 4.00354C8 3.07357 8 2.60858 7.89778 2.22708C7.62038 1.19181 6.81173 0.383164 5.77646 0.105763C5.39496 0.00354004 4.92997 0.00354004 4 0.00354004C3.52496 0.00354004 3.17125 0.00354004 2.88801 0.0171648ZM2.44646 1.34338C1.98089 1.49853 1.60432 1.8414 1.40474 2.28398L5.71956 6.5988C6.16214 6.39922 6.50501 6.02265 6.66016 5.55708L2.44646 1.34338ZM6.74994 3.87909L4.12445 1.2536C5.03234 1.25452 5.27819 1.26635 5.45293 1.31317C6.05684 1.47499 6.52855 1.9467 6.69037 2.55061C6.73719 2.72535 6.74902 2.9712 6.74994 3.87909ZM2.54707 6.69391C2.72954 6.7428 2.98955 6.75354 4 6.75354L4.10648 6.7535L1.25004 3.89705L1.25 4.00354C1.25 5.01399 1.26074 5.274 1.30963 5.45647C1.47145 6.06038 1.94316 6.53209 2.54707 6.69391Z" fill="#B28400"/>
</svg>
